<svg id="Layer_1" data-name="Layer 1" xmlns="http://www.w3.org/2000/svg" viewBox="0 0 466.49 122.53"><defs><style>.cls-1,.cls-6{fill:#010101;}.cls-2,.cls-3,.cls-5{fill:none;}.cls-2,.cls-3,.cls-6{stroke:#000;stroke-miterlimit:10;}.cls-2,.cls-3{stroke-width:3px;}.cls-3{stroke-dasharray:1.8 1.8;}.cls-4{fill:#231f20;}</style></defs><path class="cls-1" d="M320.65,270a3.43,3.43,0,1,0-3.42-3.42A3.43,3.43,0,0,0,320.65,270Zm-6.34,5.83L309.52,300h3.6l3.08-13.71,3.6,3.43V300h3.42V287.16l-3.59-3.43,1-5.14a12.57,12.57,0,0,0,9.43,4.29v-3.43a8.44,8.44,0,0,1-7.37-4.11L321,272.59a3.67,3.67,0,0,0-4.54-1.43l-8.66,3.66v8.06h3.43v-5.83l3.08-1.2" transform="translate(-84.77 -204.74)"/><path class="cls-1" d="M321.66,240.8h-5.43v1.81h5.43ZM318,252.57h1.81v-5.43H318Zm7.26-6,1.29-1.29a9.68,9.68,0,0,0-1.28-1.28L324,245.3a8.24,8.24,0,1,0,1.27,1.28ZM318.94,258a6.34,6.34,0,1,1,6.34-6.34A6.34,6.34,0,0,1,318.94,258Z" transform="translate(-84.77 -204.74)"/><path class="cls-1" d="M437.87,281.19h-1v-8a2,2,0,0,0-2-2h-2a2,2,0,0,0-2,2v8h-1a5,5,0,0,0-5,5v7h18v-7A5,5,0,0,0,437.87,281.19Zm-5-8h2v8h-2Zm8,18h-2v-3a1,1,0,1,0-2,0v3h-2v-3a1,1,0,1,0-2,0v3h-2v-3a1,1,0,1,0-2,0v3h-2v-5a3,3,0,0,1,3-3h8a3,3,0,0,1,3,3Z" transform="translate(-84.77 -204.74)"/><circle class="cls-1" cx="326.64" cy="52.45" r="3.27"/><path class="cls-1" d="M400.47,270.87l2.28,6.93,3-.61c.1-1.15-3.65-10.21-.84-9.74l-.06,12v13.1h3.27v-13.1h6.55v13.1H418V267.69l9.27,9.26,2.32-2.32L418.9,264a3.3,3.3,0,0,0-2.29-.95H406.49c-3.57,0-3.84-.08-5,1.12a6,6,0,0,0-1.32,2.46" transform="translate(-84.77 -204.74)"/><circle class="cls-1" cx="35.68" cy="59.43" r="3.27"/><path class="cls-1" d="M127.94,271.67a3.3,3.3,0,0,0-2.29-.95H115.53a8.18,8.18,0,0,1-8.18-8.18V260.9h-3.28v1.64A11.63,11.63,0,0,0,113.9,274v26.19h3.27v-13.1h6.55v13.1H127V275.34l9.27,9.26,2.32-2.32Z" transform="translate(-84.77 -204.74)"/><circle class="cls-2" cx="36.56" cy="67.72" r="35.06"/><line class="cls-2" x1="73.04" y1="68.1" x2="74.04" y2="68.1"/><line class="cls-3" x1="75.85" y1="68.1" x2="85.78" y2="68.1"/><line class="cls-2" x1="86.68" y1="68.1" x2="87.68" y2="68.1"/><polygon points="85.58 75.28 98.01 68.1 85.58 60.92 85.58 75.28"/><path class="cls-1" d="M132.37,224.36a15.81,15.81,0,0,1-4.93-.79,1.08,1.08,0,0,0-.43-.07,1.43,1.43,0,0,0-1,.4l-3,3a20.89,20.89,0,0,1-9.1-9.1l3-3a1.39,1.39,0,0,0,.35-1.41,15.39,15.39,0,0,1-.79-4.93,1.39,1.39,0,0,0-1.38-1.38h-4.83a1.39,1.39,0,0,0-1.38,1.38,23.46,23.46,0,0,0,23.46,23.46,1.38,1.38,0,0,0,1.38-1.38v-4.81A1.38,1.38,0,0,0,132.37,224.36Zm-20.66-14.51h2.07a17.66,17.66,0,0,0,.64,3.58l-1.66,1.65A20.4,20.4,0,0,1,111.71,209.85ZM131,229.13a21.25,21.25,0,0,1-5.25-1l1.65-1.65a17.43,17.43,0,0,0,3.58.62v2.06Zm-1.38-13.76H126l6.93-6.92-2-1.95-6.92,6.93v-3.58h-2.76v8.28h8.28Z" transform="translate(-84.77 -204.74)"/><path class="cls-1" d="M223.08,225a15.76,15.76,0,0,1-4.93-.78,1.08,1.08,0,0,0-.43-.07,1.43,1.43,0,0,0-1,.4l-3,3a20.94,20.94,0,0,1-9.1-9.1l3-3a1.37,1.37,0,0,0,.34-1.41,15.71,15.71,0,0,1-.78-4.93,1.38,1.38,0,0,0-1.38-1.38H201a1.38,1.38,0,0,0-1.38,1.38,23.46,23.46,0,0,0,23.46,23.46,1.39,1.39,0,0,0,1.38-1.38v-4.82A1.4,1.4,0,0,0,223.08,225Zm-20.66-14.5h2.07a18.37,18.37,0,0,0,.63,3.58l-1.65,1.65A20.07,20.07,0,0,1,202.42,210.5Zm19.28,19.28a21.16,21.16,0,0,1-5.25-1l1.64-1.64a17.64,17.64,0,0,0,3.59.62v2.06ZM220.32,216h-3.58l6.93-6.92-1.95-1.95-6.92,6.93V210.5H212v8.28h8.28Z" transform="translate(-84.77 -204.74)"/><path class="cls-1" d="M318.85,224.65a15.69,15.69,0,0,1-4.92-.78,1.08,1.08,0,0,0-.43-.07,1.43,1.43,0,0,0-1,.4l-3,3a21,21,0,0,1-9.09-9.09l3-3a1.39,1.39,0,0,0,.34-1.4,15.71,15.71,0,0,1-.78-4.93,1.39,1.39,0,0,0-1.38-1.38h-4.83a1.38,1.38,0,0,0-1.38,1.38,23.45,23.45,0,0,0,23.45,23.46,1.38,1.38,0,0,0,1.38-1.38V226A1.38,1.38,0,0,0,318.85,224.65Zm-20.65-14.5h2.07a17.43,17.43,0,0,0,.63,3.57l-1.65,1.66A20.15,20.15,0,0,1,298.2,210.15Zm19.27,19.28a21.64,21.64,0,0,1-5.24-1l1.64-1.64a17.52,17.52,0,0,0,3.59.62v2.06Zm-1.38-13.76h-3.57l6.93-6.93-1.95-1.94-6.93,6.92v-3.57h-2.76v8.28h8.28Z" transform="translate(-84.77 -204.74)"/><circle class="cls-1" cx="134.45" cy="59.43" r="3.27"/><path class="cls-1" d="M226.71,271.67a3.3,3.3,0,0,0-2.29-.95H214.31a8.19,8.19,0,0,1-8.19-8.18V260.9h-3.27v1.64A11.63,11.63,0,0,0,212.67,274v26.19h3.27v-13.1h6.55v13.1h3.27V275.34L235,284.6l2.32-2.32Z" transform="translate(-84.77 -204.74)"/><circle class="cls-2" cx="135.33" cy="67.72" r="35.06"/><path class="cls-1" d="M220.1,243.15l4.38,3.94v6.83h-1.75v-5.25h-5.25v5.25h-1.75v-6.83l4.37-3.94m0-2.35-8.75,7.87H214v7h5.25v-5.25H221v5.25h5.25v-7h2.62Z" transform="translate(-84.77 -204.74)"/><line class="cls-2" x1="171.82" y1="68.1" x2="186.45" y2="68.1"/><polygon points="184.35 75.28 196.78 68.1 184.35 60.92 184.35 75.28"/><circle class="cls-2" cx="234.17" cy="68.1" r="35.06"/><line class="cls-2" x1="270.66" y1="68.48" x2="285.29" y2="68.48"/><polygon points="283.19 75.66 295.62 68.48 283.19 61.3 283.19 75.66"/><circle class="cls-2" cx="332.26" cy="67.72" r="35.06"/><path class="cls-1" d="M422.46,210.83h2.12a20.84,20.84,0,0,1-1.07,5.33l-1.69-1.69a17.44,17.44,0,0,0,.64-3.64m-13.88,16.91,1.69,1.68a21.5,21.5,0,0,1-5.35,1.05v-2.09a18.23,18.23,0,0,0,3.66-.64m11.12-18.32a16.06,16.06,0,0,1-.8,5,1.38,1.38,0,0,0,.35,1.43l3.09,3.1a21.29,21.29,0,0,1-9.27,9.27l-3.1-3.09a1.42,1.42,0,0,0-1-.41,1.08,1.08,0,0,0-.43.07,16.1,16.1,0,0,1-5,.8,1.41,1.41,0,0,0-1.4,1.41v4.91a1.41,1.41,0,0,0,1.4,1.41,23.93,23.93,0,0,0,23.93-23.93A1.41,1.41,0,0,0,426,208h-4.92A1.41,1.41,0,0,0,419.7,209.42Z" transform="translate(-84.77 -204.74)"/><polygon class="cls-1" points="320.31 12.8 320.31 9.23 327.23 16.16 329.18 14.21 322.25 7.28 325.82 7.28 325.82 4.52 317.55 4.52 317.55 12.8 320.31 12.8"/><path class="cls-4" d="M426.66,224.46l.83,1.24c.21.33.39.63.58,1h0c.19-.35.38-.65.58-1l.81-1.23h1.14l-2,2.8,2,3h-1.2l-.85-1.31c-.23-.33-.42-.66-.62-1h0c-.19.34-.39.66-.61,1l-.84,1.31h-1.16l2.06-3-2-2.84Z" transform="translate(-84.77 -204.74)"/><path class="cls-4" d="M431.39,230.26v-.65l.82-.8c2-1.9,2.89-2.9,2.91-4.08a1.39,1.39,0,0,0-1.55-1.52,2.66,2.66,0,0,0-1.66.66l-.33-.75a3.46,3.46,0,0,1,2.21-.79,2.19,2.19,0,0,1,2.38,2.27c0,1.44-1,2.6-2.68,4.19l-.63.57v0h3.5v.87Z" transform="translate(-84.77 -204.74)"/><path class="cls-1" d="M121,246.75h1.09v4.8l-3.46,2.27-.55-1L121,251Zm4.58-4.94,3.68,3.07-1,1.23L124.57,243Zm-8.53,0,1,1.23-3.68,3.07-1-1.23Zm4.27,1.75a7.19,7.19,0,1,0,7.19,7.19A7.19,7.19,0,0,0,121.33,243.56Zm0,12.78a5.59,5.59,0,1,1,5.59-5.59A5.59,5.59,0,0,1,121.33,256.34Z" transform="translate(-84.77 -204.74)"/><circle class="cls-1" cx="429.04" cy="53.87" r="3.27"/><path class="cls-1" d="M521.31,266.11a3.3,3.3,0,0,0-2.29-.95H508.9a8.18,8.18,0,0,1-8.18-8.18v-1.64h-3.28V257a11.61,11.61,0,0,0,9.82,11.45v26.2h3.28v-13.1h6.55v13.1h3.27V269.78l9.26,9.26,2.33-2.32Z" transform="translate(-84.77 -204.74)"/><circle class="cls-2" cx="429.93" cy="68.75" r="35.06"/><path class="cls-5" d="M520.45,204.74h18.73v18.73H520.45Z" transform="translate(-84.77 -204.74)"/><path class="cls-1" d="M536.06,206.31H523.57a1.56,1.56,0,0,0-1.56,1.56v14l3.12-3.12h10.93a1.56,1.56,0,0,0,1.56-1.56v-9.36A1.56,1.56,0,0,0,536.06,206.31Zm0,10.92H524.48l-.91.91V207.87h12.49Zm-7-3.12h1.56v1.56H529Zm0-4.68h1.56v3.12H529Z" transform="translate(-84.77 -204.74)"/><path class="cls-5" d="M499.81,210.62h24v24h-24Z" transform="translate(-84.77 -204.74)"/><path class="cls-6" d="M516.09,211.63h-9.28a2,2,0,0,0-2,2v18a2,2,0,0,0,2,2h10a2,2,0,0,0,2-2V208.19c0-.05,0-.41-.31-.43a7.85,7.85,0,0,0-1,0c-.26,0-.29.09-.41.23s-.07,3.67-.31,3.65Zm.72,18h-10v-14h10Zm-10-8.46,10,0m-10.34,2.06,10,0m-9.67,2,10,0m-9.75,2.15,10,0m-7-6.82,0,10m3.46-10,0,10" transform="translate(-84.77 -204.74)"/><path class="cls-5" d="M162.71,247.67h16v16h-16Z" transform="translate(-84.77 -204.74)"/><rect class="cls-5" x="78.7" y="41.83" width="14.5" height="14.5"/><path class="cls-1" d="M174.34,259.86v-3.62l-2.41-2.42,2.41-2.42v-3.62h-7.25v3.63l2.42,2.41-2.42,2.41v3.63Zm-6-8.76V249h4.83v2.11l-2.42,2.42Z" transform="translate(-84.77 -204.74)"/><path class="cls-1" d="M469.48,261.72v-3.63l-2.41-2.42,2.41-2.42v-3.62h-7.25v3.63l2.42,2.41-2.42,2.41v3.64Zm-6-8.77v-2.11h4.84V253l-2.42,2.42Z" transform="translate(-84.77 -204.74)"/><path class="cls-4" d="M118.63,317.84h0l-1.81,1-.28-1.07,2.28-1.22H120v10.41h-1.36Z" transform="translate(-84.77 -204.74)"/><path class="cls-4" d="M324.35,225.24l.83,1.25c.21.32.39.62.58.94h0c.19-.34.38-.64.58-1l.81-1.23h1.14l-2,2.8,2,3h-1.2l-.85-1.3c-.23-.34-.42-.66-.62-1h0c-.19.35-.39.66-.61,1l-.84,1.3h-1.16l2.06-3-2-2.84Z" transform="translate(-84.77 -204.74)"/><path class="cls-4" d="M329.33,229.83a3.57,3.57,0,0,0,1.73.49c1.35,0,1.77-.86,1.76-1.51,0-1.09-1-1.56-2-1.56h-.58v-.79h.58c.77,0,1.74-.39,1.74-1.32,0-.62-.39-1.17-1.36-1.17a2.83,2.83,0,0,0-1.56.51l-.28-.76a3.71,3.71,0,0,1,2-.6c1.54,0,2.23.91,2.23,1.85a1.94,1.94,0,0,1-1.44,1.84v0a2,2,0,0,1,1.74,2c0,1.24-1,2.34-2.84,2.34a4,4,0,0,1-2-.53Z" transform="translate(-84.77 -204.74)"/><path class="cls-4" d="M214.34,326.93v-.87l1.11-1.07c2.65-2.53,3.85-3.87,3.87-5.44a1.85,1.85,0,0,0-2.06-2,3.53,3.53,0,0,0-2.21.88l-.45-1a4.59,4.59,0,0,1,2.94-1,2.93,2.93,0,0,1,3.19,3c0,1.92-1.39,3.48-3.59,5.59l-.83.77v0H221v1.17Z" transform="translate(-84.77 -204.74)"/><path class="cls-4" d="M314.21,325.48a4.66,4.66,0,0,0,2.3.66c1.81,0,2.37-1.15,2.36-2,0-1.46-1.33-2.08-2.69-2.08h-.79V321h.79c1,0,2.32-.52,2.32-1.76,0-.83-.53-1.57-1.83-1.57a3.83,3.83,0,0,0-2.08.69l-.37-1a5,5,0,0,1,2.73-.8c2,0,3,1.21,3,2.48a2.59,2.59,0,0,1-1.92,2.45v0a2.71,2.71,0,0,1,2.32,2.67c0,1.67-1.29,3.12-3.79,3.12a5.29,5.29,0,0,1-2.71-.7Z" transform="translate(-84.77 -204.74)"/><path class="cls-4" d="M416.82,326.93V324.1H412v-.93l4.65-6.65h1.52V323h1.45v1.11h-1.45v2.83Zm0-3.94v-3.47c0-.55,0-1.09.05-1.64h-.05c-.32.61-.58,1.06-.87,1.54L413.41,323v0Z" transform="translate(-84.77 -204.74)"/><path class="cls-4" d="M517.27,315.94h-4l-.4,2.67a5.89,5.89,0,0,1,.85-.06,4.36,4.36,0,0,1,2.24.56,3,3,0,0,1,1.48,2.67,3.6,3.6,0,0,1-3.87,3.55,5.05,5.05,0,0,1-2.59-.64l.35-1.07a4.6,4.6,0,0,0,2.22.58,2.3,2.3,0,0,0,2.47-2.26c0-1.34-.91-2.3-3-2.3a10.32,10.32,0,0,0-1.44.11l.67-5h5Z" transform="translate(-84.77 -204.74)"/><line class="cls-2" x1="368.61" y1="68.45" x2="369.61" y2="68.45"/><line class="cls-3" x1="371.41" y1="68.45" x2="381.34" y2="68.45"/><line class="cls-2" x1="382.24" y1="68.45" x2="383.24" y2="68.45"/><polygon points="381.14 75.63 393.57 68.45 381.14 61.27 381.14 75.63"/><path class="cls-4" d="M228.55,226l.83,1.25c.22.33.4.63.59,1h0c.2-.35.39-.65.58-1l.82-1.24h1.13l-2,2.81,2,3H231.4l-.86-1.31c-.23-.33-.42-.66-.62-1h0c-.2.35-.4.66-.62,1l-.84,1.31h-1.16l2.06-3-2-2.85Z" transform="translate(-84.77 -204.74)"/><path class="cls-4" d="M233.28,231.79v-.65l.83-.8c2-1.9,2.89-2.9,2.9-4.08a1.39,1.39,0,0,0-1.55-1.52,2.66,2.66,0,0,0-1.65.66l-.34-.75a3.46,3.46,0,0,1,2.21-.79,2.2,2.2,0,0,1,2.39,2.27c0,1.44-1,2.6-2.69,4.18l-.62.58v0h3.5v.88Z" transform="translate(-84.77 -204.74)"/></svg>