<?xml version="1.0" encoding="utf-8"?>
<!-- Generator: Adobe Illustrator 25.4.1, SVG Export Plug-In . SVG Version: 6.00 Build 0)  -->
<svg version="1.1" id="Layer_1" xmlns="http://www.w3.org/2000/svg" xmlns:xlink="http://www.w3.org/1999/xlink" x="0px" y="0px"
	 viewBox="0 0 841.89 445.08" style="enable-background:new 0 0 841.89 445.08;" xml:space="preserve">
<style type="text/css">
	.st0{fill:#010101;}
	.st1{fill:none;stroke:#000000;stroke-width:4;stroke-miterlimit:10;}
	.st2{fill:none;stroke:#000000;stroke-width:3;stroke-miterlimit:10;}
	.st3{fill:none;}
	.st4{font-family:'MyriadPro-Regular';}
	.st5{font-size:35.1941px;}
</style>
<path id="code" class="st0" d="M95.09,321.07l-6.23-6.23l6.23-6.23l-1.9-1.9l-8.13,8.13l8.13,8.13L95.09,321.07z M102.14,321.07
	l6.23-6.23l-6.23-6.23l1.9-1.9l8.13,8.13l-8.13,8.13C104.04,322.97,102.14,321.07,102.14,321.07z"/>
<path class="st0" d="M83.37,335.55H49.23c-1.88,0-3.41,1.54-3.41,3.41v23.9c0,1.88,1.54,3.41,3.41,3.41h34.14
	c1.88,0,3.4-1.54,3.4-3.41l0.02-23.9C86.78,337.09,85.24,335.55,83.37,335.55z M83.37,362.87H49.23v-23.9h34.14V362.87z
	 M78.26,361.14l3.4-3.4l-2.58-3.41h-2.8c-0.38-1.08-0.6-2.22-0.6-3.41s0.22-2.34,0.6-3.41h2.8l2.58-3.41l-3.4-3.4
	c-2.24,1.67-3.89,4.05-4.66,6.81c-0.31,1.09-0.48,2.24-0.48,3.41s0.17,2.32,0.48,3.41C74.37,357.08,76.03,359.47,78.26,361.14z
	 M61.17,350.92c2.82,0,5.12-2.3,5.12-5.12s-2.3-5.12-5.12-5.12c-2.82,0-5.12,2.3-5.12,5.12S58.36,350.92,61.17,350.92z
	 M61.17,344.09c0.94,0,1.71,0.77,1.71,1.71s-0.77,1.71-1.71,1.71c-0.94,0-1.71-0.77-1.71-1.71S60.24,344.09,61.17,344.09z
	 M71.42,358.75c0-4.27-6.78-6.11-10.24-6.11c-3.47,0-10.24,1.84-10.24,6.11v2.41h20.48V358.75z M55.17,357.74
	c1.26-0.85,3.79-1.71,6.01-1.71c2.22,0,4.73,0.84,6.01,1.71H55.17z"/>
<g>
	<g>
		<path class="st0" d="M187.95,196.36c-1.77,0-10.12,1.33-10.41,10.12c4.49-1.04,7.98-4.62,8.87-9.15c1.38,3,5.11,7.3,11.55,6.78
			C196.79,199.64,192.78,196.36,187.95,196.36z"/>
		<circle class="st0" cx="181.43" cy="208.74" r="1.96"/>
		<circle class="st0" cx="194.47" cy="208.74" r="1.96"/>
		<path class="st0" d="M203.6,206.79c0-8.63-7.01-15.65-15.65-15.65c-8.63,0-15.65,7.01-15.65,15.65c-1.43,0-2.61,1.17-2.61,2.61
			v5.22c0,1.43,1.17,2.61,2.61,2.61h2.61v-10.43c0-7.2,5.84-13.04,13.04-13.04s13.04,5.84,13.04,13.04v13.04h-15.65v2.61h15.65
			c1.43,0,2.61-1.17,2.61-2.61v-2.61c1.43,0,2.61-1.17,2.61-2.61v-5.22C206.21,207.96,205.03,206.79,203.6,206.79z"/>
	</g>
</g>
<path class="st0" d="M298.62,330.93c-2.87,0-5.67-0.46-8.26-1.32c-0.23-0.09-0.49-0.12-0.72-0.12c-0.6,0-1.18,0.23-1.64,0.67
	l-5.09,5.09c-6.54-3.35-11.91-8.69-15.24-15.24l5.09-5.09c0.65-0.65,0.83-1.55,0.58-2.36c-0.86-2.59-1.32-5.36-1.32-8.26
	c0-1.27-1.04-2.31-2.31-2.31h-8.09c-1.27,0-2.31,1.04-2.31,2.31c0,21.71,17.6,39.31,39.31,39.31c1.27,0,2.31-1.04,2.31-2.31v-8.07
	C300.93,331.97,299.89,330.93,298.62,330.93z M264,306.62h3.47c0.16,2.06,0.51,4.07,1.06,5.99l-2.77,2.77
	C264.81,312.61,264.21,309.68,264,306.62z M296.31,338.93c-3.05-0.21-5.99-0.81-8.79-1.73l2.75-2.75c1.97,0.55,3.98,0.9,6.01,1.04
	v3.45H296.31z M293.99,315.87H288l11.61-11.61l-3.26-3.26l-11.61,11.61v-5.99h-4.62v13.87h13.87V315.87z"/>
<g>
	<g>
		<circle class="st0" cx="335.19" cy="307.46" r="5.49"/>
		<path class="st0" d="M347.75,320.03c-0.99-0.99-2.41-1.59-3.84-1.59h-16.95c-7.57,0-13.72-6.15-13.72-13.72v-2.74h-5.49v2.74
			c0,9.66,7.19,17.83,16.46,19.2v21.95v21.95h5.49v-21.95h10.97v21.95h5.49v-21.95v-19.7l15.53,15.53l3.9-3.9L347.75,320.03z"/>
	</g>
</g>
<path class="st0" d="M539.56,319.58c3.16,0,5.74-2.58,5.74-5.74s-2.58-5.74-5.74-5.74c-3.16,0-5.74,2.58-5.74,5.74
	S536.4,319.58,539.56,319.58z M528.93,329.35l-8.04,40.49h6.03l5.17-22.97l6.03,5.74v17.23h5.74V348.3l-6.03-5.74l1.72-8.61
	c3.73,4.31,9.48,7.18,15.79,7.18v-5.74c-5.46,0-10.05-2.87-12.35-6.89l-2.87-4.59c-1.61-2.56-4.82-3.59-7.61-2.41l-14.5,6.15v13.5
	h5.74v-9.76L528.93,329.35"/>
<path class="st0" d="M500.03,263.72c0.14,2.1,0.5,4.15,1.06,6.11l-2.83,2.83c-0.97-2.83-1.58-5.83-1.79-8.94H500.03 M523.28,292.06
	c2,0.57,4.06,0.92,6.13,1.06v3.51c-3.11-0.21-6.11-0.83-8.96-1.77L523.28,292.06 M502.3,259h-8.25c-1.3,0-2.36,1.06-2.36,2.36
	c0,22.15,17.95,40.09,40.09,40.09c1.3,0,2.36-1.06,2.36-2.36v-8.23c0-1.3-1.06-2.36-2.36-2.36c-2.92,0-5.78-0.47-8.42-1.34
	c-0.24-0.09-0.5-0.12-0.73-0.12c-0.61,0-1.2,0.24-1.67,0.68l-5.19,5.19c-6.67-3.42-12.15-8.87-15.54-15.54l5.19-5.19
	c0.66-0.66,0.85-1.58,0.59-2.41c-0.87-2.64-1.34-5.47-1.34-8.42C504.65,260.06,503.59,259,502.3,259z"/>
<g>
	<path class="st0" d="M641.14,8.18c-9.25,0-16.76,7.51-16.76,16.76s7.51,16.76,16.76,16.76c9.25,0,16.76-7.51,16.76-16.76
		S650.39,8.18,641.14,8.18z M641.14,38.35c-7.39,0-13.41-6.02-13.41-13.41s6.02-13.41,13.41-13.41s13.41,6.02,13.41,13.41
		S648.53,38.35,641.14,38.35z M642.63,23.43c-2.98-0.99-4.42-1.61-4.42-3.18c0-1.71,1.86-2.33,3.03-2.33c2.2,0,3,1.66,3.18,2.25
		l2.65-1.12c-0.25-0.74-1.37-3.2-4.46-3.74v-2.09h-2.93v2.11c-4.36,0.94-4.39,4.78-4.39,4.96c0,3.8,3.77,4.88,5.61,5.55
		c2.65,0.94,3.82,1.79,3.82,3.4c0,1.89-1.76,2.7-3.32,2.7c-3.05,0-3.92-3.13-4.02-3.5l-2.78,1.12c1.06,3.67,3.82,4.66,5.06,4.96
		v2.16h2.93V34.6c0.87-0.15,5.06-0.99,5.06-5.4C647.68,26.87,646.65,24.83,642.63,23.43z"/>
</g>
<g>
	<path id="phone" class="st0" d="M88.66,111.85H72.28c-2.83,0-5.12,2.29-5.12,5.12v34.8c0,2.83,2.29,5.12,5.12,5.12h16.38
		c2.83,0,5.12-2.29,5.12-5.12v-34.8C93.78,114.14,91.49,111.85,88.66,111.85z M80.47,154.84c-1.7,0-3.07-1.37-3.07-3.07
		c0-1.7,1.37-3.07,3.07-3.07s3.07,1.37,3.07,3.07C83.54,153.47,82.17,154.84,80.47,154.84z M89.68,146.65H71.26v-28.66h18.43V146.65
		z"/>
	<path class="st0" d="M112.44,113.18c2.2,0,3.99,1.8,3.99,3.99c0,2.2-1.8,3.99-3.99,3.99c-2.2,0-3.99-1.8-3.99-3.99
		C108.45,114.98,110.25,113.18,112.44,113.18 M112.44,133.14c5.39,0,11.58,2.58,11.98,3.99h-23.95
		C100.93,135.7,107.07,133.14,112.44,133.14 M112.44,109.19c-4.41,0-7.98,3.57-7.98,7.98c0,4.41,3.57,7.98,7.98,7.98
		c4.41,0,7.98-3.57,7.98-7.98C120.43,112.76,116.86,109.19,112.44,109.19z M112.44,129.15c-5.33,0-15.97,2.67-15.97,7.98v3.99h31.94
		v-3.99C128.41,131.82,117.77,129.15,112.44,129.15z"/>
	<circle class="st1" cx="97.87" cy="130.55" r="47.73"/>
</g>
<circle class="st1" cx="98.93" cy="314.84" r="78.14"/>
<circle class="st1" cx="315.81" cy="314.19" r="78.14"/>
<circle class="st1" cx="532.69" cy="314.84" r="78.14"/>
<circle class="st1" cx="749.57" cy="313.84" r="78.14"/>
<path class="st0" d="M146.68,335.55h-34.14c-1.88,0-3.41,1.54-3.41,3.41v23.9c0,1.88,1.54,3.41,3.41,3.41h34.14
	c1.88,0,3.4-1.54,3.4-3.41l0.02-23.9C150.09,337.09,148.55,335.55,146.68,335.55z M146.68,362.87h-34.14v-23.9h34.14V362.87z
	 M141.57,361.14l3.4-3.4l-2.58-3.41h-2.8c-0.38-1.08-0.6-2.22-0.6-3.41s0.22-2.34,0.6-3.41h2.8l2.58-3.41l-3.4-3.4
	c-2.24,1.67-3.89,4.05-4.66,6.81c-0.31,1.09-0.48,2.24-0.48,3.41s0.17,2.32,0.48,3.41C137.68,357.08,139.34,359.47,141.57,361.14z
	 M124.49,350.92c2.82,0,5.12-2.3,5.12-5.12s-2.3-5.12-5.12-5.12c-2.82,0-5.12,2.3-5.12,5.12S121.67,350.92,124.49,350.92z
	 M124.49,344.09c0.94,0,1.71,0.77,1.71,1.71s-0.77,1.71-1.71,1.71s-1.71-0.77-1.71-1.71S123.55,344.09,124.49,344.09z
	 M134.73,358.75c0-4.27-6.78-6.11-10.24-6.11c-3.47,0-10.24,1.84-10.24,6.11v2.41h20.48V358.75z M118.48,357.74
	c1.26-0.85,3.79-1.71,6.01-1.71s4.73,0.84,6.01,1.71H118.48z"/>
<path class="st0" d="M114.94,253.2H80.8c-1.88,0-3.41,1.54-3.41,3.41v23.9c0,1.88,1.54,3.41,3.41,3.41h34.14
	c1.88,0,3.4-1.54,3.4-3.41l0.02-23.9C118.36,254.73,116.82,253.2,114.94,253.2z M114.94,280.51H80.8v-23.9h34.14V280.51z
	 M109.84,278.78l3.4-3.4l-2.58-3.41h-2.8c-0.38-1.08-0.6-2.22-0.6-3.41c0-1.19,0.22-2.34,0.6-3.41h2.8l2.58-3.41l-3.4-3.4
	c-2.24,1.67-3.89,4.05-4.66,6.81c-0.31,1.09-0.48,2.24-0.48,3.41c0,1.18,0.17,2.32,0.48,3.41
	C105.95,274.72,107.6,277.11,109.84,278.78z M92.75,268.56c2.82,0,5.12-2.3,5.12-5.12c0-2.82-2.3-5.12-5.12-5.12
	s-5.12,2.3-5.12,5.12C87.63,266.25,89.94,268.56,92.75,268.56z M92.75,261.73c0.94,0,1.71,0.77,1.71,1.71s-0.77,1.71-1.71,1.71
	s-1.71-0.77-1.71-1.71S91.81,261.73,92.75,261.73z M103,276.39c0-4.27-6.78-6.11-10.24-6.11s-10.24,1.84-10.24,6.11v2.41H103V276.39
	z M86.74,275.39c1.26-0.85,3.79-1.71,6.01-1.71s4.73,0.84,6.01,1.71H86.74z"/>
<path class="st0" d="M98.76,296c6.73,0,12.54,4.78,13.85,11.39l0.77,3.86l3.93,0.28c4.01,0.26,7.15,3.62,7.15,7.61
	c0,4.24-3.47,7.71-7.71,7.71H83.34c-5.68,0-10.28-4.6-10.28-10.28c0-5.27,3.93-9.66,9.15-10.2l2.75-0.28l1.29-2.44
	C88.69,298.93,93.47,296,98.76,296 M98.76,290.86c-7.43,0-13.88,4.22-17.09,10.38c-7.74,0.82-13.75,7.38-13.75,15.32
	c0,8.51,6.91,15.42,15.42,15.42h33.42c7.09,0,12.85-5.76,12.85-12.85c0-6.79-5.27-12.29-11.95-12.75
	C115.91,297.51,108.12,290.86,98.76,290.86z"/>
<path class="st0" d="M316.22,250.9l10.22,9.2v15.97h-4.09V263.8h-12.27v12.27H306V260.1L316.22,250.9 M316.22,245.4l-20.45,18.4
	h6.13v16.36h12.27v-12.27h4.09v12.27h12.27V263.8h6.13L316.22,245.4z"/>
<path class="st0" d="M537.16,247.62h-9.1v3.03h9.1V247.62z M531.09,267.34h3.03v-9.1h-3.03V267.34z M543.28,257.3l2.15-2.15
	c-0.65-0.77-1.37-1.5-2.14-2.14l-2.15,2.15c-2.35-1.88-5.31-3-8.53-3c-7.54,0-13.65,6.11-13.65,13.65s6.1,13.65,13.65,13.65
	c7.55,0,13.65-6.11,13.65-13.65C546.26,262.6,545.14,259.65,543.28,257.3z M532.61,276.44c-5.87,0-10.62-4.75-10.62-10.62
	c0-5.87,4.75-10.62,10.62-10.62c5.87,0,10.62,4.75,10.62,10.62C543.23,271.69,538.48,276.44,532.61,276.44z"/>
<path class="st0" d="M559.18,272.22v-6.7l-8.38,8.38l8.38,8.38v-6.7c5.55,0,10.06,4.51,10.06,10.06s-4.51,10.06-10.06,10.06
	c-5.55,0-10.06-4.51-10.06-10.06h-3.35c0,7.41,6,13.41,13.41,13.41c7.41,0,13.41-6,13.41-13.41S566.59,272.22,559.18,272.22z
	 M557.95,287.34h1.04c0.49,0,0.86-0.12,1.11-0.37s0.37-0.58,0.37-1c0-0.19-0.02-0.35-0.09-0.51c-0.07-0.16-0.14-0.28-0.25-0.39
	c-0.12-0.12-0.25-0.21-0.42-0.25s-0.37-0.09-0.58-0.09c-0.19,0-0.35,0.02-0.51,0.07c-0.16,0.05-0.3,0.12-0.42,0.23
	c-0.12,0.12-0.21,0.21-0.28,0.35s-0.12,0.3-0.12,0.46h-1.97c0-0.42,0.09-0.79,0.25-1.11c0.16-0.32,0.39-0.63,0.7-0.86
	c0.3-0.23,0.63-0.42,1.02-0.53c0.39-0.12,0.81-0.19,1.25-0.19c0.49,0,0.95,0.07,1.37,0.19c0.42,0.12,0.76,0.3,1.07,0.53
	c0.3,0.23,0.53,0.53,0.7,0.88s0.25,0.76,0.25,1.23c0,0.21-0.02,0.42-0.09,0.63s-0.16,0.39-0.3,0.58c-0.14,0.19-0.28,0.35-0.46,0.51
	c-0.19,0.16-0.39,0.28-0.65,0.39c0.56,0.21,0.97,0.49,1.25,0.9s0.42,0.88,0.42,1.41c0,0.46-0.09,0.88-0.28,1.23
	c-0.19,0.35-0.42,0.67-0.74,0.9c-0.32,0.23-0.67,0.44-1.11,0.56s-0.88,0.19-1.39,0.19c-0.42,0-0.83-0.05-1.23-0.16
	c-0.39-0.12-0.76-0.28-1.07-0.53c-0.3-0.25-0.58-0.53-0.76-0.88c-0.19-0.35-0.28-0.79-0.28-1.27h1.97c0,0.19,0.05,0.35,0.12,0.51
	s0.16,0.28,0.3,0.39c0.14,0.12,0.28,0.21,0.46,0.25s0.37,0.09,0.58,0.09c0.23,0,0.44-0.02,0.63-0.09c0.19-0.07,0.35-0.16,0.46-0.28
	c0.12-0.12,0.23-0.25,0.3-0.42s0.09-0.35,0.09-0.56c0-0.25-0.05-0.49-0.12-0.67s-0.19-0.35-0.32-0.46s-0.3-0.21-0.51-0.25
	c-0.21-0.05-0.42-0.09-0.67-0.09h-1.09C557.95,288.85,557.95,287.34,557.95,287.34z"/>
<g>
	<g>
		<path class="st0" d="M781.28,328.4h-1.68v-13.41c0-1.84-1.51-3.35-3.35-3.35h-3.35c-1.84,0-3.35,1.51-3.35,3.35v13.41h-1.68
			c-4.63,0-8.38,3.75-8.38,8.38v11.73h30.17v-11.73C789.66,332.15,785.9,328.4,781.28,328.4z M772.9,314.99h3.35v13.41h-3.35V314.99
			z M786.31,345.16h-3.35v-5.03c0-0.92-0.75-1.68-1.68-1.68s-1.68,0.75-1.68,1.68v5.03h-3.35v-5.03c0-0.92-0.75-1.68-1.68-1.68
			s-1.68,0.75-1.68,1.68v5.03h-3.35v-5.03c0-0.92-0.75-1.68-1.68-1.68s-1.68,0.75-1.68,1.68v5.03h-3.35v-8.38
			c0-2.77,2.26-5.03,5.03-5.03h13.41c2.77,0,5.03,2.26,5.03,5.03V345.16z"/>
	</g>
</g>
<g>
	<g>
		<circle class="st0" cx="736.92" cy="287.06" r="5.49"/>
		<path class="st0" d="M749.49,299.63c-0.99-0.99-2.41-1.59-3.84-1.59h-16.95c-7.57,0-13.72-6.15-13.72-13.72v-2.74h-5.49v2.74
			c0,9.66,7.19,17.83,16.46,19.2v21.95v21.95h5.49v-21.95h10.97v21.95h5.49v-21.95v-19.7l15.53,15.53l3.9-3.9L749.49,299.63z"/>
	</g>
</g>
<circle class="st1" cx="641.14" cy="130.19" r="78.14"/>
<g>
	<g>
		<circle class="st0" cx="626.66" cy="120.48" r="5.49"/>
		<path class="st0" d="M639.22,133.04c-0.99-0.99-2.41-1.59-3.84-1.59h-16.95c-7.57,0-13.72-6.15-13.72-13.72v-2.74h-5.49v2.74
			c0,9.66,7.19,17.83,16.46,19.2v21.95v21.95h5.49v-21.95h10.97v21.95h5.49v-21.95v-19.7l15.53,15.53l3.9-3.9L639.22,133.04z"/>
	</g>
</g>
<path class="st0" d="M681.54,91.56h3.56c-0.21,3.11-0.83,6.11-1.79,8.94l-2.83-2.83C681.05,95.71,681.4,93.66,681.54,91.56
	 M658.29,119.9l2.83,2.81c-2.85,0.94-5.85,1.56-8.96,1.77v-3.51C654.23,120.82,656.29,120.47,658.29,119.9 M676.92,89.2
	c0,2.95-0.47,5.78-1.34,8.42c-0.26,0.83-0.07,1.75,0.59,2.41l5.19,5.19c-3.4,6.67-8.87,12.12-15.54,15.54l-5.19-5.19
	c-0.47-0.45-1.06-0.68-1.67-0.68c-0.24,0-0.5,0.02-0.73,0.12c-2.64,0.87-5.49,1.34-8.42,1.34c-1.3,0-2.36,1.06-2.36,2.36v8.23
	c0,1.3,1.06,2.36,2.36,2.36c22.15,0,40.09-17.95,40.09-40.09c0-1.3-1.06-2.36-2.36-2.36h-8.25C677.98,86.84,676.92,87.9,676.92,89.2
	z"/>
<path class="st0" d="M639.11,82.93v16.76h3.35V88.64l19.42,19.42l2.36-2.36l-19.42-19.42h11.04v-3.35H639.11z"/>
<path class="st0" d="M566.91,31.65c-9.25,0-16.76,7.51-16.76,16.76s7.51,16.76,16.76,16.76c9.25,0,16.76-7.51,16.76-16.76
	S576.16,31.65,566.91,31.65z M566.91,61.81c-7.41,0-13.41-6-13.41-13.41S559.5,35,566.91,35c7.41,0,13.41,6,13.41,13.41
	S574.32,61.81,566.91,61.81z M573.61,55.11h-13.41V41.7h13.41V55.11z"/>
<g>
	<path class="st0" d="M601.8,13c-9.25,0-16.76,7.51-16.76,16.76s7.51,16.76,16.76,16.76c9.25,0,16.76-7.51,16.76-16.76
		S611.05,13,601.8,13z M601.8,43.17c-7.39,0-13.41-6.02-13.41-13.41s6.02-13.41,13.41-13.41s13.41,6.02,13.41,13.41
		S609.19,43.17,601.8,43.17z M597.61,37.3l11.73-7.54l-11.73-7.54V37.3z"/>
</g>
<path class="st0" d="M679.33,21.38h3.35v3.35h-3.35V21.38z M679.33,28.08h3.35v10.06h-3.35V28.08z M681.01,13
	c-9.25,0-16.76,7.51-16.76,16.76s7.51,16.76,16.76,16.76s16.76-7.51,16.76-16.76S690.26,13,681.01,13z M681.01,43.17
	c-7.39,0-13.41-6.02-13.41-13.41s6.02-13.41,13.41-13.41s13.41,6.02,13.41,13.41S688.4,43.17,681.01,43.17z"/>
<path class="st0" d="M714.53,58.46h3.35v-3.35h-3.35V58.46z M716.2,31.65c-9.25,0-16.76,7.51-16.76,16.76s7.51,16.76,16.76,16.76
	c9.25,0,16.76-7.51,16.76-16.76S725.46,31.65,716.2,31.65z M716.2,61.81c-7.39,0-13.41-6.02-13.41-13.41S708.81,35,716.2,35
	s13.41,6.02,13.41,13.41S723.6,61.81,716.2,61.81z M716.2,38.35c-3.7,0-6.7,3-6.7,6.7h3.35c0-1.84,1.51-3.35,3.35-3.35
	s3.35,1.51,3.35,3.35c0,3.35-5.03,2.93-5.03,8.38h3.35c0-3.77,5.03-4.19,5.03-8.38C722.91,41.35,719.91,38.35,716.2,38.35z"/>
<g>
	<g>
		<line class="st2" x1="182.11" y1="299.04" x2="222.29" y2="299.04"/>
		<g>
			<polygon points="220.19,306.22 232.62,299.04 220.19,291.86 			"/>
		</g>
	</g>
</g>
<g>
	<g>
		<line class="st2" x1="398.99" y1="315.39" x2="439.17" y2="315.39"/>
		<g>
			<polygon points="437.07,322.57 449.51,315.39 437.07,308.21 			"/>
		</g>
	</g>
</g>
<g>
	<g>
		<line class="st2" x1="555.75" y1="233.16" x2="578.11" y2="199.78"/>
		<g>
			<polygon points="582.9,205.52 583.86,191.19 570.97,197.53 			"/>
		</g>
	</g>
</g>
<g>
	<g>
		<line class="st2" x1="68.22" y1="185.19" x2="68.22" y2="225.37"/>
		<g>
			<polygon points="61.04,223.27 68.22,235.71 75.4,223.27 			"/>
		</g>
	</g>
</g>
<g>
	<g>
		<line class="st2" x1="126.19" y1="233.04" x2="126.19" y2="192.86"/>
		<g>
			<polygon points="133.37,194.96 126.19,182.53 119.01,194.96 			"/>
		</g>
	</g>
</g>
<rect x="24.96" y="195.1" class="st3" width="31.09" height="47.75"/>
<text transform="matrix(1 0 0 1 24.9611 220.0906)" class="st4 st5">1</text>
<rect x="89.08" y="405.86" class="st3" width="19.7" height="47.75"/>
<text transform="matrix(1 0 0 1 89.0744 430.8459)" class="st4 st5">2</text>
<rect x="193.21" y="255.58" class="st3" width="55.3" height="47.75"/>
<text transform="matrix(1 0 0 1 193.2121 280.571)" class="st4 st5">3</text>
<rect x="143.09" y="195.1" class="st3" width="19.7" height="47.75"/>
<text transform="matrix(1 0 0 1 143.0929 220.0906)" class="st4 st5">4</text>
<rect x="522.84" y="406.97" class="st3" width="19.7" height="47.75"/>
<text transform="matrix(1 0 0 1 522.8391 431.9592)" class="st4 st5">6</text>
<rect x="657.75" y="227.03" class="st3" width="19.7" height="47.75"/>
<text transform="matrix(1 0 0 1 657.7521 252.0154)" class="st4 st5">8</text>
<g>
	<g>
		<line class="st2" x1="722.08" y1="231.64" x2="696.48" y2="200.67"/>
		<g>
			<polygon points="703.35,197.72 689.89,192.71 692.28,206.87 			"/>
		</g>
	</g>
</g>
<g>
	<g>
		<line class="st2" x1="671.44" y1="205.67" x2="697.04" y2="236.63"/>
		<g>
			<polygon points="690.17,239.59 703.62,244.6 701.23,230.44 			"/>
		</g>
	</g>
</g>
<rect x="592.93" y="218.98" class="st3" width="19.7" height="47.75"/>
<text transform="matrix(1 0 0 1 592.9338 243.9646)" class="st4 st5">7</text>
<rect x="722.57" y="182.91" class="st3" width="19.7" height="47.75"/>
<text transform="matrix(1 0 0 1 722.5695 207.9011)" class="st4 st5">9</text>
<g>
	<g>
		<line class="st2" x1="182.11" y1="330.08" x2="222.29" y2="330.08"/>
		<g>
			<polygon points="220.19,337.26 232.62,330.08 220.19,322.9 			"/>
		</g>
	</g>
</g>
<rect x="193.21" y="348.51" class="st3" width="55.3" height="47.75"/>
<text transform="matrix(1 0 0 1 193.2121 373.4983)" class="st4 st5">5</text>
<text transform="matrix(1 0 0 1 528.0588 141.1248)" class="st4 st5">X</text>
</svg>
